<svg width="49" height="43" viewBox="0 0 49 43" fill="none" xmlns="http://www.w3.org/2000/svg">
<path fill-rule="evenodd" clip-rule="evenodd" d="M14.7504 22.7488C14.7504 20.1631 15.7776 17.6833 17.606 15.8549C19.4343 14.0265 21.9142 12.9993 24.4999 12.9993C27.0856 12.9993 29.5654 14.0265 31.3938 15.8549C33.2222 17.6833 34.2494 20.1631 34.2494 22.7488C34.2494 25.3345 33.2222 27.8143 31.3938 29.6427C29.5654 31.4711 27.0856 32.4983 24.4999 32.4983C21.9142 32.4983 19.4343 31.4711 17.606 29.6427C15.7776 27.8143 14.7504 25.3345 14.7504 22.7488ZM24.4999 16.8991C22.9484 16.8991 21.4606 17.5154 20.3635 18.6124C19.2665 19.7095 18.6502 21.1974 18.6502 22.7488C18.6502 24.3002 19.2665 25.7881 20.3635 26.8852C21.4606 27.9822 22.9484 28.5985 24.4999 28.5985C26.0513 28.5985 27.5392 27.9822 28.6362 26.8852C29.7333 25.7881 30.3496 24.3002 30.3496 22.7488C30.3496 21.1974 29.7333 19.7095 28.6362 18.6124C27.5392 17.5154 26.0513 16.8991 24.4999 16.8991Z" fill="#545454"/>
<path fill-rule="evenodd" clip-rule="evenodd" d="M20.9017 3.89979C19.5971 3.89979 18.346 4.41804 17.4235 5.34052C16.501 6.263 15.9828 7.51415 15.9828 8.81873C15.9823 9.65376 15.668 10.4581 15.1021 11.0722C14.5362 11.6862 13.7601 12.0651 12.9279 12.1336L7.13023 12.6015C6.57579 12.6462 6.05143 12.872 5.63798 13.2441C5.22453 13.6162 4.94496 14.1139 4.84235 14.6606C3.67664 20.8221 3.59043 27.1393 4.58756 33.3302L4.83975 34.9005C5.07894 36.3825 6.29827 37.5134 7.79579 37.6356L12.8473 38.0464C20.603 38.6756 28.3968 38.6756 36.1525 38.0464L41.2014 37.6356C41.9296 37.5767 42.6169 37.2752 43.1533 36.7793C43.6898 36.2834 44.0443 35.6218 44.1601 34.9005L44.4123 33.3302C45.4085 27.1391 45.3214 20.8219 44.1549 14.6606C44.0517 14.1144 43.7719 13.6172 43.3585 13.2456C42.9451 12.874 42.4211 12.6486 41.867 12.6041L36.0719 12.1336C35.2392 12.0662 34.4625 11.6877 33.8964 11.0734C33.3302 10.4591 33.0163 9.65411 33.0171 8.81873C33.0171 8.17277 32.8898 7.53313 32.6426 6.93634C32.3954 6.33954 32.0331 5.79728 31.5763 5.34052C31.1196 4.88375 30.5773 4.52143 29.9805 4.27423C29.3837 4.02703 28.7441 3.89979 28.0981 3.89979H20.9017ZM12.0986 8.28836C12.2343 6.04553 13.2208 3.93903 14.8568 2.39875C16.4927 0.858476 18.6548 0.000530741 20.9017 0H28.0981C32.7909 0 36.6257 3.66581 36.9012 8.28836L42.1842 8.71734C43.5896 8.83079 44.9189 9.40292 45.9673 10.3457C47.0158 11.2885 47.7255 12.5497 47.9871 13.9353C49.2376 20.5389 49.3312 27.3116 48.2626 33.949L48.0105 35.5219C47.7557 37.1042 46.9776 38.5553 45.8007 39.6432C44.6238 40.731 43.116 41.3927 41.5186 41.5224L36.4697 41.9332C28.5029 42.5801 20.4969 42.5801 12.5301 41.9332L7.48121 41.5224C5.8838 41.3927 4.37605 40.731 3.19913 39.6432C2.02221 38.5553 1.24413 37.1042 0.989353 35.5219L0.737166 33.949C-0.330944 27.3122 -0.237695 20.5402 1.01275 13.9353C1.27475 12.5499 1.98451 11.2889 3.03291 10.3462C4.08132 9.40349 5.41033 8.83121 6.81564 8.71734L12.0986 8.28836Z" fill="#545454"/>
</svg>
