<svg width="32" height="28" viewBox="0 0 32 28" fill="none" xmlns="http://www.w3.org/2000/svg">
<path d="M28.2759 15.948L18.4965 25.6614C17.8482 26.3051 16.9689 26.6667 16.0521 26.6667C15.1353 26.6667 14.2561 26.3051 13.6077 25.6614L3.82832 15.9497C3.01992 15.1539 2.37776 14.2074 1.9387 13.1645C1.49965 12.1216 1.27235 11.0028 1.26986 9.87238C1.26737 8.74199 1.48973 7.62224 1.92418 6.57741C2.35863 5.53259 2.99661 4.58327 3.80149 3.78396C4.60638 2.98465 5.56232 2.35109 6.61443 1.91965C7.66654 1.48821 8.7941 1.26739 9.93237 1.26986C11.0707 1.27234 12.1972 1.49806 13.2474 1.93407C14.2976 2.37008 15.2508 3.0078 16.0521 3.8106C17.6798 2.23441 19.8673 1.35851 22.1407 1.37266C24.4141 1.3868 26.5904 2.28985 28.1981 3.88618C29.8058 5.48251 30.7154 7.64357 30.73 9.90124C30.7445 12.1589 29.8629 14.3314 28.2759 15.948Z" stroke="#545454" stroke-width="2.5" stroke-linecap="round" stroke-linejoin="round"/>
</svg>
