<svg width="27" height="27" viewBox="0 0 27 27" fill="none" xmlns="http://www.w3.org/2000/svg">
<path d="M7.03674 13.1374C8.24316 11.7108 9.85755 10.6898 11.6617 10.2126C13.4658 9.73545 15.3726 9.82502 17.1242 10.4692C18.8759 11.1134 20.388 12.2812 21.456 13.8147C22.524 15.3482 23.0964 17.1734 23.0958 19.0435C23.0958 19.5624 23.3015 20.06 23.6676 20.4269C24.0337 20.7939 24.5302 21 25.0479 21C25.5656 21 26.0622 20.7939 26.4282 20.4269C26.7943 20.06 27 19.5624 27 19.0435C27 11.8396 21.1737 6.00001 13.9861 6.00001C12.1663 5.99801 10.3664 6.37962 8.70332 7.12004C7.0402 7.86046 5.55102 8.94315 4.33246 10.2978L3.88088 7.73479C3.84092 7.47772 3.7502 7.23122 3.61404 7.00971C3.47787 6.7882 3.299 6.59614 3.08788 6.44476C2.87676 6.29338 2.63763 6.18573 2.3845 6.12809C2.13137 6.07046 1.8693 6.06401 1.61365 6.10911C1.358 6.15422 1.11389 6.24998 0.89561 6.39078C0.677329 6.53159 0.489259 6.71462 0.342407 6.92915C0.195554 7.14369 0.0928682 7.38543 0.0403575 7.64023C-0.0121532 7.89502 -0.0134339 8.15775 0.0365904 8.41305L1.39263 16.1217C1.48243 16.6317 1.77004 17.087 2.19559 17.3843C2.72005 17.7522 3.41108 17.8343 3.99801 17.6478L11.343 16.3487C11.5995 16.3086 11.8455 16.2177 12.0665 16.0812C12.2875 15.9448 12.4791 15.7655 12.6301 15.5539C12.7812 15.3423 12.8886 15.1026 12.9461 14.8489C13.0036 14.5952 13.01 14.3325 12.965 14.0763C12.92 13.8201 12.8245 13.5754 12.684 13.3566C12.5435 13.1379 12.3609 12.9494 12.1468 12.8022C11.9328 12.655 11.6916 12.5521 11.4374 12.4994C11.1832 12.4468 10.921 12.4455 10.6663 12.4957L7.03804 13.1361L7.03674 13.1374Z" fill="#545454"/>
</svg>
