<svg width="14" height="10" viewBox="0 0 14 10" fill="none" xmlns="http://www.w3.org/2000/svg">
<path fill-rule="evenodd" clip-rule="evenodd" d="M13.6924 0.308062C13.8894 0.505149 14 0.772421 14 1.0511C14 1.32978 13.8894 1.59706 13.6924 1.79414L5.81802 9.67157C5.71396 9.77569 5.59041 9.85829 5.45444 9.91464C5.31846 9.97099 5.17272 10 5.02554 10C4.87836 10 4.73262 9.97099 4.59664 9.91464C4.46067 9.85829 4.33712 9.77569 4.23306 9.67157L0.320727 5.75843C0.220387 5.66148 0.140352 5.54551 0.0852926 5.41728C0.0302332 5.28906 0.00125183 5.15115 3.9666e-05 5.0116C-0.0011725 4.87206 0.0254089 4.73366 0.0782325 4.6045C0.131056 4.47534 0.209064 4.358 0.307706 4.25932C0.406347 4.16064 0.523645 4.0826 0.652756 4.02976C0.781868 3.97691 0.920207 3.95032 1.0597 3.95153C1.1992 3.95275 1.33705 3.98174 1.46522 4.03682C1.5934 4.0919 1.70932 4.17197 1.80624 4.27235L5.02519 7.49254L12.2062 0.308062C12.3038 0.210398 12.4196 0.132924 12.5471 0.0800652C12.6746 0.0272066 12.8113 0 12.9493 0C13.0873 0 13.224 0.0272066 13.3515 0.0800652C13.479 0.132924 13.5948 0.210398 13.6924 0.308062Z" fill="#545454"/>
</svg>
