<svg width="35" height="35" viewBox="0 0 35 35" fill="none" xmlns="http://www.w3.org/2000/svg">
<path fill-rule="evenodd" clip-rule="evenodd" d="M23.8637 12.7273C23.8637 14.415 23.1933 16.0336 21.9998 17.227C20.8064 18.4205 19.1878 19.0909 17.5001 19.0909C15.8123 19.0909 14.1937 18.4205 13.0003 17.227C11.8069 16.0336 11.1364 14.415 11.1364 12.7273C11.1364 11.0395 11.8069 9.42092 13.0003 8.22751C14.1937 7.03409 15.8123 6.36364 17.5001 6.36364C19.1878 6.36364 20.8064 7.03409 21.9998 8.22751C23.1933 9.42092 23.8637 11.0395 23.8637 12.7273ZM20.6819 12.7273C20.6819 13.5711 20.3467 14.3805 19.75 14.9772C19.1532 15.5739 18.3439 15.9091 17.5001 15.9091C16.6562 15.9091 15.8469 15.5739 15.2502 14.9772C14.6535 14.3805 14.3183 13.5711 14.3183 12.7273C14.3183 11.8834 14.6535 11.0741 15.2502 10.4774C15.8469 9.88069 16.6562 9.54546 17.5001 9.54546C18.3439 9.54546 19.1532 9.88069 19.75 10.4774C20.3467 11.0741 20.6819 11.8834 20.6819 12.7273Z" fill="#545454"/>
<path fill-rule="evenodd" clip-rule="evenodd" d="M17.5 0C7.83523 0 0 7.83523 0 17.5C0 27.1648 7.83523 35 17.5 35C27.1648 35 35 27.1648 35 17.5C35 7.83523 27.1648 0 17.5 0ZM3.18182 17.5C3.18182 20.825 4.31613 23.8859 6.21727 26.3168C7.55241 24.5635 9.27484 23.1425 11.25 22.165C13.2252 21.1875 15.3996 20.6799 17.6034 20.6818C19.7787 20.6797 21.9258 21.1742 23.881 22.1276C25.8363 23.081 27.5481 24.4681 28.8861 26.1832C30.2646 24.3753 31.1927 22.2651 31.5937 20.0273C31.9947 17.7895 31.857 15.4883 31.1921 13.3143C30.5272 11.1402 29.3542 9.15576 27.7701 7.52506C26.186 5.89436 24.2363 4.66432 22.0824 3.93672C19.9285 3.20911 17.6324 3.00486 15.3839 3.34087C13.1354 3.67687 10.9992 4.54346 9.15213 5.86895C7.30505 7.19443 5.80015 8.9407 4.76195 10.9633C3.72376 12.9858 3.1821 15.2265 3.18182 17.5ZM17.5 31.8182C14.2131 31.8231 11.0254 30.6924 8.47636 28.6173C9.50239 27.1484 10.868 25.9492 12.4571 25.1215C14.0462 24.2939 15.8117 23.8624 17.6034 23.8636C19.3727 23.8622 21.1169 24.2829 22.691 25.0909C24.2651 25.8988 25.6238 27.0707 26.6541 28.5091C24.0852 30.6516 20.845 31.8229 17.5 31.8182Z" fill="#545454"/>
</svg>
