<svg width="49" height="49" viewBox="0 0 49 49" fill="none" xmlns="http://www.w3.org/2000/svg">
<path d="M47.5913 1.65375L47.3463 1.40875C45.4679 -0.469584 42.3646 -0.469584 40.4863 1.40875L32.3196 9.65709C24.1529 4.59375 13.2913 5.57375 6.18625 12.6788C-2.06208 21.0088 -2.06208 34.4838 6.18625 42.7321C14.4346 51.0621 27.9096 51.0621 36.1579 42.7321C43.1813 35.7088 44.2429 24.8471 39.3429 16.6804L47.5913 8.43209C49.4696 6.55375 49.4696 3.53208 47.5913 1.65375ZM43.7529 8.26875C42.0379 8.26875 40.7313 6.88042 40.7313 5.24709C40.7313 3.53208 42.1196 2.22542 43.7529 2.22542C45.3863 2.22542 46.7746 3.61375 46.7746 5.24709C46.7746 6.96209 45.4679 8.26875 43.7529 8.26875Z" fill="#3E4347"/>
<path d="M8.3096 22.9688C4.96127 30.4004 7.3296 38.7304 13.6996 41.5888C19.9879 44.4471 27.8279 40.6904 31.1763 33.2588C34.5246 25.8271 32.1563 17.4971 25.7863 14.6387C19.4979 11.7804 11.6579 15.4554 8.3096 22.9688Z" fill="white"/>
<path d="M17.1296 34.3204C20.7378 34.3204 23.6629 31.3954 23.6629 27.7871C23.6629 24.1788 20.7378 21.2538 17.1296 21.2538C13.5213 21.2538 10.5962 24.1788 10.5962 27.7871C10.5962 31.3954 13.5213 34.3204 17.1296 34.3204Z" fill="#F29A2E"/>
</svg>
