<svg width="83" height="83" viewBox="0 0 83 83" fill="none" xmlns="http://www.w3.org/2000/svg">
<circle cx="41.5" cy="41.5" r="41.5" fill="#C4C1C1"/>
<path fill-rule="evenodd" clip-rule="evenodd" d="M32.3125 44.5833C32.3125 42.014 33.3331 39.55 35.1499 37.7332C36.9667 35.9165 39.4307 34.8958 42 34.8958C44.5693 34.8958 47.0333 35.9165 48.8501 37.7332C50.6669 39.55 51.6875 42.014 51.6875 44.5833C51.6875 47.1526 50.6669 49.6167 48.8501 51.4334C47.0333 53.2502 44.5693 54.2708 42 54.2708C39.4307 54.2708 36.9667 53.2502 35.1499 51.4334C33.3331 49.6167 32.3125 47.1526 32.3125 44.5833ZM42 38.7708C40.4584 38.7708 38.98 39.3832 37.8899 40.4733C36.7999 41.5633 36.1875 43.0417 36.1875 44.5833C36.1875 46.1249 36.7999 47.6033 37.8899 48.6934C38.98 49.7834 40.4584 50.3958 42 50.3958C43.5416 50.3958 45.02 49.7834 46.1101 48.6934C47.2001 47.6033 47.8125 46.1249 47.8125 44.5833C47.8125 43.0417 47.2001 41.5633 46.1101 40.4733C45.02 39.3832 43.5416 38.7708 42 38.7708Z" fill="#545454"/>
<path fill-rule="evenodd" clip-rule="evenodd" d="M38.4247 25.8542C37.1284 25.8542 35.8852 26.3691 34.9686 27.2857C34.052 28.2023 33.537 29.4455 33.537 30.7418C33.5366 31.5715 33.2242 32.3708 32.6619 32.9809C32.0997 33.5911 31.3285 33.9675 30.5016 34.0356L24.7408 34.5006C24.1899 34.5449 23.6688 34.7693 23.258 35.139C22.8472 35.5088 22.5694 36.0034 22.4674 36.5466C21.3091 42.6689 21.2235 48.9459 22.2143 55.0975L22.4649 56.6578C22.7025 58.1303 23.9141 59.2541 25.4021 59.3755L30.4215 59.7837C38.1279 60.4088 45.8722 60.4088 53.5785 59.7837L58.5954 59.3755C59.3189 59.317 60.0018 59.0174 60.5349 58.5246C61.0679 58.0319 61.4201 57.3745 61.5352 56.6578L61.7858 55.0975C62.7757 48.9457 62.6892 42.6687 61.53 36.5466C61.4276 36.0038 61.1495 35.5098 60.7388 35.1406C60.328 34.7714 59.8072 34.5474 59.2567 34.5032L53.4984 34.0356C52.6711 33.9687 51.8993 33.5926 51.3368 32.9822C50.7742 32.3718 50.4623 31.5719 50.463 30.7418C50.463 30.1 50.3366 29.4644 50.091 28.8714C49.8453 28.2784 49.4853 27.7396 49.0315 27.2857C48.5776 26.8319 48.0388 26.4718 47.4458 26.2262C46.8528 25.9806 46.2172 25.8542 45.5754 25.8542H38.4247ZM29.6775 30.2148C29.8124 27.9862 30.7927 25.8931 32.4182 24.3627C34.0437 22.8322 36.192 21.9797 38.4247 21.9792H45.5754C50.2383 21.9792 54.0487 25.6217 54.3225 30.2148L59.5719 30.6411C60.9684 30.7538 62.2892 31.3223 63.331 32.2591C64.3728 33.1959 65.0779 34.4491 65.3379 35.8258C66.5804 42.3875 66.6734 49.1171 65.6117 55.7123L65.3611 57.2752C65.108 58.8475 64.3348 60.2894 63.1654 61.3703C61.9959 62.4512 60.4978 63.1087 58.9105 63.2376L53.8937 63.6457C45.9776 64.2886 38.0224 64.2886 30.1064 63.6457L25.0895 63.2376C23.5023 63.1087 22.0041 62.4512 20.8347 61.3703C19.6652 60.2894 18.8921 58.8475 18.6389 57.2752L18.3884 55.7123C17.327 49.1177 17.4197 42.3888 18.6622 35.8258C18.9225 34.4493 19.6278 33.1963 20.6695 32.2596C21.7113 31.3229 23.0318 30.7542 24.4282 30.6411L29.6775 30.2148Z" fill="#545454"/>
</svg>
