<svg width="128" height="128" viewBox="0 0 128 128" fill="none" xmlns="http://www.w3.org/2000/svg">
<path d="M124.32 4.32L123.68 3.68C118.773 -1.22667 110.667 -1.22667 105.76 3.68L84.4267 25.2267C63.0933 12 34.72 14.56 16.16 33.12C-5.38667 54.88 -5.38667 90.08 16.16 111.627C37.7067 133.387 72.9067 133.387 94.4533 111.627C112.8 93.28 115.573 64.9067 102.773 43.5733L124.32 22.0267C129.227 17.12 129.227 9.22667 124.32 4.32ZM114.293 21.6C109.813 21.6 106.4 17.9733 106.4 13.7067C106.4 9.22667 110.027 5.81333 114.293 5.81333C118.56 5.81333 122.187 9.44 122.187 13.7067C122.187 18.1867 118.773 21.6 114.293 21.6Z" fill="#3E4347"/>
<path d="M21.7067 60C12.96 79.4133 19.1467 101.173 35.7867 108.64C52.2133 116.107 72.6933 106.293 81.44 86.88C90.1867 67.4667 84 45.7067 67.36 38.24C50.9333 30.7733 30.4533 40.3733 21.7067 60Z" fill="white"/>
<path d="M44.7467 89.6533C54.1723 89.6533 61.8133 82.0123 61.8133 72.5867C61.8133 63.161 54.1723 55.52 44.7467 55.52C35.321 55.52 27.68 63.161 27.68 72.5867C27.68 82.0123 35.321 89.6533 44.7467 89.6533Z" fill="#F29A2E"/>
</svg>
